<svg aria-hidden="true" style="position: absolute; width: 0; height: 0; overflow: hidden;" version="1.1"
  xmlns="http://www.w3.org/2000/svg" xmlns:xlink="http://www.w3.org/1999/xlink">
  <defs>
    <symbol id="icon-button-left" viewBox="0 0 31 32">
      <path fill="#fff" style="fill: var(--color1, #fff)" opacity="0.5"
        d="M0 16c0 8.552 6.932 15.484 15.484 15.484s15.484-6.932 15.484-15.484c0-8.552-6.932-15.484-15.484-15.484s-15.484 6.932-15.484 15.484z">
      </path>
      <path fill="#000" style="fill: var(--color2, #000)" opacity="0.5"
        d="M18.124 12.446l-1.092-1.091-4.645 4.645 4.645 4.645 1.092-1.092-3.546-3.553 3.546-3.554z"></path>
    </symbol>
    <symbol id="icon-button-right" viewBox="0 0 31 32">
      <path fill="#fff" style="fill: var(--color1, #fff)" opacity="0.5"
        d="M30.968 16c0 8.552-6.932 15.484-15.484 15.484s-15.484-6.932-15.484-15.484c0-8.552 6.932-15.484 15.484-15.484s15.484 6.932 15.484 15.484z">
      </path>
      <path fill="#000" style="fill: var(--color2, #000)" opacity="0.5"
        d="M12.844 12.446l1.091-1.091 4.645 4.645-4.645 4.645-1.091-1.092 3.545-3.553-3.545-3.554z"></path>
    </symbol>
    <symbol id="icon-edit" viewBox="0 0 32 32">
      <path fill="#fff" style="fill: var(--color2, #000)"
        d="M32 29.714h-32v2.971h32v-2.971zM21.927 1.038l-16.526 16.526v7.577h7.582l16.526-16.523-7.584-7.579zM11.87 22.464h-3.79v-3.79l13.847-13.847 3.79 3.79-13.847 13.847z">
      </path>
    </symbol>
    <symbol id="icon-fullscreen" viewBox="0 0 32 32">
      <path fill="#fff" style="fill: var(--color2, #000)"
        d="M9.142 18.742h-2.742v6.858h6.858v-2.742h-4.115v-4.115zM6.4 13.258h2.742v-4.115h4.115v-2.742h-6.858v6.858zM22.858 22.858h-4.115v2.742h6.858v-6.858h-2.742v4.115zM18.742 6.4v2.742h4.115v4.115h2.742v-6.858h-6.858z">
      </path>
    </symbol>
    <symbol id="icon-heart" viewBox="0 0 32 32">
      <path fill="#fff" style="fill: var(--color1, #fff)"
        d="M16 30.219c-0 0-0.001 0-0.001 0-0.474 0-0.907-0.176-1.238-0.466l0.002 0.002c-1.294-1.131-2.539-2.194-3.639-3.131l-0.007-0.005c-3.223-2.747-6.007-5.12-7.943-7.456-2.169-2.613-3.175-5.090-3.175-7.797 0-2.629 0.901-5.056 2.537-6.83 1.578-1.717 3.835-2.789 6.342-2.789 0.022 0 0.044 0 0.066 0l-0.003-0c1.847 0 3.538 0.585 5.029 1.737 0.777 0.612 1.446 1.312 2.009 2.093l0.021 0.031c0.601-0.83 1.28-1.543 2.034-2.126 1.358-1.080 3.097-1.733 4.989-1.733 0.014 0 0.028 0 0.042 0h-0.002c2.469 0 4.743 0.99 6.4 2.786 1.637 1.774 2.537 4.201 2.537 6.83 0 2.706-1.008 5.184-3.173 7.794-1.938 2.338-4.722 4.711-7.945 7.458-1.102 0.937-2.35 2.002-3.646 3.136-0.329 0.288-0.762 0.464-1.236 0.464-0 0-0 0-0 0h0zM8.939 3.625c-1.943 0-3.726 0.775-5.024 2.181-1.317 1.429-2.041 3.406-2.041 5.561 0 2.277 0.846 4.311 2.743 6.601 1.833 2.213 4.56 4.535 7.717 7.225l0.007 0.005c1.104 0.942 2.354 2.009 3.657 3.147 1.31-1.143 2.562-2.21 3.669-3.152 3.157-2.69 5.883-5.013 7.717-7.225 1.897-2.29 2.743-4.325 2.743-6.601 0-2.158-0.725-4.133-2.041-5.561-1.238-1.343-3.005-2.181-4.968-2.181-0.020 0-0.039 0-0.059 0l0.003-0c-0.006-0-0.013-0-0.020-0-1.465 0-2.811 0.506-3.873 1.354l0.013-0.010c-0.862 0.695-1.582 1.523-2.139 2.461l-0.023 0.042c-0.209 0.346-0.582 0.574-1.009 0.574-0.003 0-0.005 0-0.008-0h0c-0.002 0-0.004 0-0.006 0-0.428 0-0.802-0.229-1.008-0.571l-0.003-0.005c-0.58-0.98-1.3-1.808-2.145-2.489l-0.017-0.014c-1.050-0.838-2.396-1.344-3.861-1.344-0.007 0-0.014 0-0.021 0h0.001z">
      </path>
    </symbol>
    <symbol id="icon-orange-heart" viewBox="0 0 34 32">
      <path fill="#ff6b09" style="fill: var(--color3, #ff6b09)"
        d="M17.231 30.671l-2.412-2.334c-8.96-7.668-14.818-12.834-14.818-19.17 0-5.167 4.135-9.167 9.477-9.167 2.929 0 5.858 1.334 7.754 3.5 1.915-2.135 4.675-3.478 7.75-3.5l0.004-0c5.342 0 9.477 4 9.477 9.167 0 6.336-5.858 11.503-14.818 19.17l-2.412 2.334z">
      </path>
    </symbol>
  </defs>
</svg>